<mxfile host="app.diagrams.net" agent="Mozilla/5.0 (Windows NT 10.0; Win64; x64) AppleWebKit/537.36 (KHTML, like Gecko) Chrome/130.0.0.0 Safari/537.36" version="24.8.2">
  <diagram id="C5RBs43oDa-KdzZeNtuy" name="Page-1">
    <mxGraphModel dx="1379" dy="613" grid="1" gridSize="10" guides="1" tooltips="1" connect="1" arrows="1" fold="1" page="1" pageScale="1" pageWidth="827" pageHeight="1169" math="0" shadow="0">
      <root>
        <mxCell id="WIyWlLk6GJQsqaUBKTNV-0" />
        <mxCell id="WIyWlLk6GJQsqaUBKTNV-1" parent="WIyWlLk6GJQsqaUBKTNV-0" />
        <mxCell id="WIyWlLk6GJQsqaUBKTNV-3" value="&lt;div&gt;(Script)&lt;/div&gt;&#39;calcula_tr_func3&#39;&lt;div&gt;call_func3&lt;/div&gt;" style="rounded=1;whiteSpace=wrap;html=1;fontSize=12;glass=0;strokeWidth=1;shadow=0;fillColor=#1ba1e2;fontColor=#ffffff;strokeColor=#006EAF;fontStyle=1" parent="WIyWlLk6GJQsqaUBKTNV-1" vertex="1">
          <mxGeometry x="74" y="190" width="120" height="50" as="geometry" />
        </mxCell>
        <mxCell id="uFymRsZD5cepGyMi8nIv-0" value="&lt;div&gt;(Function)&lt;/div&gt;&lt;div&gt;&lt;span style=&quot;background-color: initial;&quot;&gt;&#39;func3_frf_disp&#39;&lt;/span&gt;&lt;/div&gt;&lt;div&gt;&lt;span style=&quot;background-color: initial;&quot;&gt;call_func_lattice&lt;/span&gt;&lt;/div&gt;" style="rounded=1;whiteSpace=wrap;html=1;fontSize=12;glass=0;strokeWidth=1;shadow=0;fillColor=#fa6800;fontColor=#000000;strokeColor=#C73500;fontStyle=1" parent="WIyWlLk6GJQsqaUBKTNV-1" vertex="1">
          <mxGeometry x="68" y="300" width="126" height="75" as="geometry" />
        </mxCell>
        <mxCell id="uFymRsZD5cepGyMi8nIv-4" value="" style="endArrow=classic;html=1;rounded=0;entryX=-0.005;entryY=0.602;entryDx=0;entryDy=0;entryPerimeter=0;" parent="WIyWlLk6GJQsqaUBKTNV-1" target="uFymRsZD5cepGyMi8nIv-6" edge="1">
          <mxGeometry width="50" height="50" relative="1" as="geometry">
            <mxPoint x="194" y="347" as="sourcePoint" />
            <mxPoint x="264" y="350" as="targetPoint" />
          </mxGeometry>
        </mxCell>
        <mxCell id="uFymRsZD5cepGyMi8nIv-6" value="&lt;div&gt;(Function)&lt;/div&gt;&#39;func_lattice_type_full&#39;&lt;div&gt;call_database&lt;/div&gt;" style="rounded=1;whiteSpace=wrap;html=1;fontSize=12;glass=0;strokeWidth=1;shadow=0;fillColor=#fa6800;fontColor=#000000;strokeColor=#C73500;fontStyle=1" parent="WIyWlLk6GJQsqaUBKTNV-1" vertex="1">
          <mxGeometry x="264" y="300" width="136" height="77.5" as="geometry" />
        </mxCell>
        <mxCell id="uFymRsZD5cepGyMi8nIv-8" value="&lt;b&gt;&lt;font style=&quot;font-size: 15px;&quot;&gt;data_pwe&lt;/font&gt;&lt;/b&gt;&lt;div&gt;&lt;b&gt;&lt;font style=&quot;font-size: 15px;&quot;&gt;all_lattices&lt;/font&gt;&lt;/b&gt;&lt;/div&gt;" style="shape=cylinder3;whiteSpace=wrap;html=1;boundedLbl=1;backgroundOutline=1;size=15;fillColor=#60a917;fontColor=#ffffff;strokeColor=#2D7600;" parent="WIyWlLk6GJQsqaUBKTNV-1" vertex="1">
          <mxGeometry x="440" y="255" width="110" height="140" as="geometry" />
        </mxCell>
        <mxCell id="uFymRsZD5cepGyMi8nIv-9" value="" style="endArrow=classic;html=1;rounded=0;entryX=0.5;entryY=0;entryDx=0;entryDy=0;" parent="WIyWlLk6GJQsqaUBKTNV-1" target="uFymRsZD5cepGyMi8nIv-0" edge="1">
          <mxGeometry width="50" height="50" relative="1" as="geometry">
            <mxPoint x="130.5" y="240" as="sourcePoint" />
            <mxPoint x="130.5" y="290" as="targetPoint" />
          </mxGeometry>
        </mxCell>
        <mxCell id="uFymRsZD5cepGyMi8nIv-15" value="" style="endArrow=classic;html=1;rounded=0;" parent="WIyWlLk6GJQsqaUBKTNV-1" edge="1">
          <mxGeometry width="50" height="50" relative="1" as="geometry">
            <mxPoint x="440" y="338.08" as="sourcePoint" />
            <mxPoint x="400" y="338.08" as="targetPoint" />
            <Array as="points" />
          </mxGeometry>
        </mxCell>
        <mxCell id="uFymRsZD5cepGyMi8nIv-16" value="" style="endArrow=none;html=1;rounded=0;" parent="WIyWlLk6GJQsqaUBKTNV-1" edge="1">
          <mxGeometry width="50" height="50" relative="1" as="geometry">
            <mxPoint x="620" y="516.25" as="sourcePoint" />
            <mxPoint x="620" y="133.75" as="targetPoint" />
            <Array as="points">
              <mxPoint x="620" y="351.25" />
            </Array>
          </mxGeometry>
        </mxCell>
        <mxCell id="PuAEEZnOOM0AFzHRyymF-5" value="" style="endArrow=classic;html=1;rounded=0;exitX=0.067;exitY=0.714;exitDx=0;exitDy=0;exitPerimeter=0;" edge="1" parent="WIyWlLk6GJQsqaUBKTNV-1">
          <mxGeometry width="50" height="50" relative="1" as="geometry">
            <mxPoint x="670" y="520" as="sourcePoint" />
            <mxPoint x="620" y="520" as="targetPoint" />
          </mxGeometry>
        </mxCell>
        <object label="kag_lattice" id="uFymRsZD5cepGyMi8nIv-14">
          <mxCell style="shape=cylinder3;whiteSpace=wrap;html=1;boundedLbl=1;backgroundOutline=1;size=15;fillColor=#60a917;fontColor=#ffffff;strokeColor=#2D7600;fontStyle=1" parent="WIyWlLk6GJQsqaUBKTNV-1" vertex="1">
            <mxGeometry x="667" y="480" width="90" height="70" as="geometry" />
          </mxCell>
        </object>
        <mxCell id="PuAEEZnOOM0AFzHRyymF-6" value="" style="endArrow=classic;html=1;rounded=0;exitX=0.067;exitY=0.714;exitDx=0;exitDy=0;exitPerimeter=0;" edge="1" parent="WIyWlLk6GJQsqaUBKTNV-1">
          <mxGeometry width="50" height="50" relative="1" as="geometry">
            <mxPoint x="673" y="130" as="sourcePoint" />
            <mxPoint x="620" y="130" as="targetPoint" />
          </mxGeometry>
        </mxCell>
        <mxCell id="uFymRsZD5cepGyMi8nIv-10" value="square_lattice" style="shape=cylinder3;whiteSpace=wrap;html=1;boundedLbl=1;backgroundOutline=1;size=15;fillColor=#60a917;fontColor=#ffffff;strokeColor=#2D7600;fontStyle=1" parent="WIyWlLk6GJQsqaUBKTNV-1" vertex="1">
          <mxGeometry x="667" y="90" width="90" height="70" as="geometry" />
        </mxCell>
        <mxCell id="PuAEEZnOOM0AFzHRyymF-13" value="" style="endArrow=classic;html=1;rounded=0;" edge="1" parent="WIyWlLk6GJQsqaUBKTNV-1">
          <mxGeometry width="50" height="50" relative="1" as="geometry">
            <mxPoint x="677" y="230" as="sourcePoint" />
            <mxPoint x="620" y="230" as="targetPoint" />
          </mxGeometry>
        </mxCell>
        <mxCell id="uFymRsZD5cepGyMi8nIv-11" value="rect_lattice" style="shape=cylinder3;whiteSpace=wrap;html=1;boundedLbl=1;backgroundOutline=1;size=15;fillColor=#60a917;fontColor=#ffffff;strokeColor=#2D7600;fontStyle=1" parent="WIyWlLk6GJQsqaUBKTNV-1" vertex="1">
          <mxGeometry x="667" y="190" width="90" height="70" as="geometry" />
        </mxCell>
        <mxCell id="PuAEEZnOOM0AFzHRyymF-7" value="" style="endArrow=classic;html=1;rounded=0;exitX=0.067;exitY=0.714;exitDx=0;exitDy=0;exitPerimeter=0;" edge="1" parent="WIyWlLk6GJQsqaUBKTNV-1">
          <mxGeometry width="50" height="50" relative="1" as="geometry">
            <mxPoint x="673" y="332.5" as="sourcePoint" />
            <mxPoint x="620" y="333" as="targetPoint" />
          </mxGeometry>
        </mxCell>
        <mxCell id="uFymRsZD5cepGyMi8nIv-12" value="trian_lattice" style="shape=cylinder3;whiteSpace=wrap;html=1;boundedLbl=1;backgroundOutline=1;size=15;fillColor=#60a917;fontColor=#ffffff;strokeColor=#2D7600;fontStyle=1" parent="WIyWlLk6GJQsqaUBKTNV-1" vertex="1">
          <mxGeometry x="667" y="290" width="90" height="70" as="geometry" />
        </mxCell>
        <mxCell id="PuAEEZnOOM0AFzHRyymF-4" value="" style="endArrow=classic;html=1;rounded=0;exitX=0.067;exitY=0.714;exitDx=0;exitDy=0;exitPerimeter=0;" edge="1" parent="WIyWlLk6GJQsqaUBKTNV-1">
          <mxGeometry width="50" height="50" relative="1" as="geometry">
            <mxPoint x="673" y="430" as="sourcePoint" />
            <mxPoint x="620" y="430" as="targetPoint" />
          </mxGeometry>
        </mxCell>
        <mxCell id="uFymRsZD5cepGyMi8nIv-13" value="hex_lattice" style="shape=cylinder3;whiteSpace=wrap;html=1;boundedLbl=1;backgroundOutline=1;size=15;fillColor=#60a917;fontColor=#ffffff;strokeColor=#2D7600;fontStyle=1" parent="WIyWlLk6GJQsqaUBKTNV-1" vertex="1">
          <mxGeometry x="667" y="390" width="90" height="70" as="geometry" />
        </mxCell>
        <mxCell id="PuAEEZnOOM0AFzHRyymF-16" value="" style="shape=flexArrow;endArrow=classic;html=1;rounded=0;" edge="1" parent="WIyWlLk6GJQsqaUBKTNV-1">
          <mxGeometry width="50" height="50" relative="1" as="geometry">
            <mxPoint x="610" y="336.83" as="sourcePoint" />
            <mxPoint x="560" y="336.83" as="targetPoint" />
          </mxGeometry>
        </mxCell>
      </root>
    </mxGraphModel>
  </diagram>
</mxfile>
